<svg width="233" height="155" viewBox="0 0 233 155" fill="none" xmlns="http://www.w3.org/2000/svg">
<path d="M107.384 28.7518C102.091 8.25238 212.028 7.2524 223.836 28.7518C235.644 50.2511 236.458 105.749 223.836 129.749C211.214 153.748 99.6477 139.748 107.384 129.749C115.12 119.749 112.677 49.2511 107.384 28.7518Z" fill="#F3F4F6"/>
<path d="M151.248 26.4H189.648V39.2H165.328V62.88H184.656V75.68H165.328V103.2H189.648V116H151.248V26.4Z" fill="#0F766E"/>
<path d="M14.0153 22C40.3717 16.7407 99.498 -2.50003 112 29C124.501 60.5 123.15 114.5 112 130C100.85 145.5 23.1379 148.5 14.0153 130C4.89259 111.5 -12.3412 27.2594 14.0153 22Z" fill="#0F766E"/>
<path d="M50.128 25.4H69.2L83.792 115H69.712L67.152 97.208V97.464H51.152L48.592 115H35.536L50.128 25.4ZM65.488 85.304L59.216 41.016H58.96L52.816 85.304H65.488Z" fill="#F3F4F6"/>
</svg>
