<svg width="403" height="403" viewBox="0 0 403 403" fill="none" xmlns="http://www.w3.org/2000/svg">
<g filter="url(#filter0_i_68_2)">
<path fill-rule="evenodd" clip-rule="evenodd" d="M86.898 261.811C96.0075 259.611 122.295 228.265 135.691 213.416C149.088 198.567 204.281 208.466 204.281 223.865C204.281 239.264 136.763 277.762 144.265 285.462C151.767 293.161 186.965 304.241 196.779 300.861C201.965 299.074 225.745 223.865 280.372 223.865C334.999 223.865 335.534 150.52 334.999 128.719C334.464 106.918 276.621 64.9252 214.462 81.9742C152.303 99.0231 45.216 220.016 44.0295 237.065C42.843 254.113 77.7884 264.01 86.898 261.811ZM254.115 120.472C237.504 124.872 180.167 152.37 186.598 171.619C193.028 190.867 234.825 191.967 247.149 190.867C259.474 189.768 281.444 150.17 280.372 135.871C279.301 121.572 270.727 116.072 254.115 120.472Z" fill="#D7EAE5"/>
</g>
<g filter="url(#filter1_d_68_2)">
<path d="M70.8528 223.865C69.7811 224.965 64.9584 231.015 70.8528 237.064C76.7473 243.114 83.1775 238.164 84.2492 237.064C85.321 235.965 90.1437 229.915 84.2492 223.865C78.3548 217.816 71.9246 222.765 70.8528 223.865Z" fill="black"/>
</g>
<g filter="url(#filter2_d_68_2)">
<path d="M134.402 180.989C129.053 176.295 94.818 177.86 102.842 183.076C106.576 185.504 109.651 183.985 115.68 186.727C122.604 189.876 125.309 196.116 130.123 193.508C134.937 190.9 139.752 185.684 134.402 180.989Z" fill="black"/>
<path d="M144.012 169.514C138.007 165.646 103.741 169.169 112.47 173.165C116.534 175.025 121.603 173.414 127.983 175.252C135.31 177.362 139.649 182.102 144.012 178.825C148.375 175.548 150.017 173.381 144.012 169.514Z" fill="black"/>
<path d="M153.806 157.284C147.277 154.333 113.933 162.802 123.176 165.483C127.479 166.731 132.245 164.4 138.835 165.289C146.403 166.31 151.418 170.366 155.231 166.491C159.044 162.616 160.336 160.234 153.806 157.284Z" fill="black"/>
</g>
<defs>
<filter id="filter0_i_68_2" x="44" y="73" width="296.08" height="228.485" filterUnits="userSpaceOnUse" color-interpolation-filters="sRGB">
<feFlood flood-opacity="0" result="BackgroundImageFix"/>
<feBlend mode="normal" in="SourceGraphic" in2="BackgroundImageFix" result="shape"/>
<feColorMatrix in="SourceAlpha" type="matrix" values="0 0 0 0 0 0 0 0 0 0 0 0 0 0 0 0 0 0 127 0" result="hardAlpha"/>
<feOffset dx="5" dy="-13"/>
<feGaussianBlur stdDeviation="2.5"/>
<feComposite in2="hardAlpha" operator="arithmetic" k2="-1" k3="1"/>
<feColorMatrix type="matrix" values="0 0 0 0 0 0 0 0 0 0 0 0 0 0 0 0 0 0 0.35 0"/>
<feBlend mode="normal" in2="shape" result="effect1_innerShadow_68_2"/>
</filter>
<filter id="filter1_d_68_2" x="66.9783" y="215.915" width="25.1455" height="25.0997" filterUnits="userSpaceOnUse" color-interpolation-filters="sRGB">
<feFlood flood-opacity="0" result="BackgroundImageFix"/>
<feColorMatrix in="SourceAlpha" type="matrix" values="0 0 0 0 0 0 0 0 0 0 0 0 0 0 0 0 0 0 127 0" result="hardAlpha"/>
<feOffset dx="2" dy="-2"/>
<feGaussianBlur stdDeviation="1.5"/>
<feComposite in2="hardAlpha" operator="out"/>
<feColorMatrix type="matrix" values="0 0 0 0 0 0 0 0 0 0 0 0 0 0 0 0 0 0 0.45 0"/>
<feBlend mode="normal" in2="BackgroundImageFix" result="effect1_dropShadow_68_2"/>
<feBlend mode="normal" in="SourceGraphic" in2="effect1_dropShadow_68_2" result="shape"/>
</filter>
<filter id="filter2_d_68_2" x="98.6296" y="150.668" width="64.7678" height="45.4624" filterUnits="userSpaceOnUse" color-interpolation-filters="sRGB">
<feFlood flood-opacity="0" result="BackgroundImageFix"/>
<feColorMatrix in="SourceAlpha" type="matrix" values="0 0 0 0 0 0 0 0 0 0 0 0 0 0 0 0 0 0 127 0" result="hardAlpha"/>
<feOffset dx="1" dy="-2"/>
<feGaussianBlur stdDeviation="2"/>
<feComposite in2="hardAlpha" operator="out"/>
<feColorMatrix type="matrix" values="0 0 0 0 0 0 0 0 0 0 0 0 0 0 0 0 0 0 0.75 0"/>
<feBlend mode="normal" in2="BackgroundImageFix" result="effect1_dropShadow_68_2"/>
<feBlend mode="normal" in="SourceGraphic" in2="effect1_dropShadow_68_2" result="shape"/>
</filter>
</defs>
</svg>
